<svg width="40" height="40" viewBox="0 0 100 100" fill="none" stroke="#3b1f13" strokeWidth="6" strokeLinecap="round" strokeLinejoin="round" xmlns="http://www.w3.org/2000/svg">
  <path d="M 22 55 L 55 35 C 65 35, 75 40, 75 45" />
  <path d="M 22 62 L 75 52 C 82 50, 82 60, 75 62 L 22 72 C 16 73, 16 63, 22 62 Z" />
  <path d="M 53 36 C 50 30, 56 22, 58 20 C 62 25, 64 30, 58 34" />
  <path d="M 50 34 C 55 31, 60 31, 64 35" strokeWidth="4.5" />
  <circle cx="58" cy="10" r="3" fill="#3b1f13" stroke="none" />
  <circle cx="48" cy="18" r="2.5" fill="#3b1f13" stroke="none" />
  <circle cx="68" cy="18" r="2.5" fill="#3b1f13" stroke="none" />
</svg>